<?xml version="1.0" encoding="UTF-8" standalone="no"?>
<!-- Created with Inkscape (http://www.inkscape.org/) -->

<svg
   xmlns:dc="http://purl.org/dc/elements/1.1/"
   xmlns:cc="http://creativecommons.org/ns#"
   xmlns:rdf="http://www.w3.org/1999/02/22-rdf-syntax-ns#"
   xmlns:svg="http://www.w3.org/2000/svg"
   xmlns="http://www.w3.org/2000/svg"
   xmlns:sodipodi="http://sodipodi.sourceforge.net/DTD/sodipodi-0.dtd"
   xmlns:inkscape="http://www.inkscape.org/namespaces/inkscape"
   width="250"
   height="60"
   viewBox="0 0 66.14583 15.874999"
   version="1.1"
   id="svg908"
   inkscape:version="0.92.3 (2405546, 2018-03-11)"
   sodipodi:docname="nitrodex-white.svg">
  <defs
     id="defs902" />
  <sodipodi:namedview
     id="base"
     pagecolor="#ffffff"
     bordercolor="#666666"
     borderopacity="1.0"
     inkscape:pageopacity="0.0"
     inkscape:pageshadow="2"
     inkscape:zoom="2"
     inkscape:cx="-7.0622636"
     inkscape:cy="98.058613"
     inkscape:document-units="px"
     inkscape:current-layer="layer1"
     showgrid="false"
     units="px"
     inkscape:snap-bbox="true"
     inkscape:bbox-paths="true"
     inkscape:bbox-nodes="true"
     inkscape:snap-page="true"
     inkscape:window-width="2498"
     inkscape:window-height="1417"
     inkscape:window-x="1974"
     inkscape:window-y="-8"
     inkscape:window-maximized="1" />
  <metadata
     id="metadata905">
    <rdf:RDF>
      <cc:Work
         rdf:about="">
        <dc:format>image/svg+xml</dc:format>
        <dc:type
           rdf:resource="http://purl.org/dc/dcmitype/StillImage" />
        <dc:title></dc:title>
      </cc:Work>
    </rdf:RDF>
  </metadata>
  <g
     inkscape:label="Layer 1"
     inkscape:groupmode="layer"
     id="layer1"
     transform="translate(0,-281.12499)">
    <path
       inkscape:connector-curvature="0"
       id="path829"
       style="font-style:normal;font-variant:normal;font-weight:normal;font-stretch:normal;font-size:40px;line-height:1.25;font-family:'Fax Sans';-inkscape-font-specification:'Fax Sans';letter-spacing:0px;word-spacing:0px;fill:#ffffff;fill-opacity:1;stroke:none;stroke-width:0.44395772"
       d="m 26.556316,285.15179 c -1.047447,0 -1.988358,0.33758 -2.574213,1.01256 v -0.83497 h -1.686565 v 8.52652 h 1.686565 v -3.9258 c 0,-2.30921 1.331484,-3.17957 2.574213,-3.17957 z" />
    <path
       inkscape:connector-curvature="0"
       id="path823"
       style="font-style:normal;font-variant:normal;font-weight:normal;font-stretch:normal;font-size:40px;line-height:1.25;font-family:'Fax Sans';-inkscape-font-specification:'Fax Sans';letter-spacing:0px;word-spacing:0px;fill:#ffffff;fill-opacity:1;stroke:none;stroke-width:0.44395772"
       d="M 7.0125239,293.8559 H 8.699085 v -4.08557 c 0,-2.8955 -1.9173463,-4.61854 -4.3140309,-4.61854 -1.011933,0 -1.9528576,0.33758 -2.6984932,0.92371 v -0.74612 H 0 v 8.52652 h 1.6865609 v -4.08557 c 0,-1.90069 1.2427191,-3.0198 2.6984932,-3.0198 1.8108288,0 2.6274698,1.56319 2.6274698,3.0198 z" />
    <path
       inkscape:connector-curvature="0"
       style="font-style:normal;font-variant:normal;font-weight:normal;font-stretch:normal;font-size:40px;line-height:1.25;font-family:'Fax Sans';-inkscape-font-specification:'Fax Sans';letter-spacing:0px;word-spacing:0px;fill:#ffffff;fill-opacity:1;stroke:none;stroke-width:0.44395772"
       d="M 12.886337,285.32938 H 11.1998 v 8.52652 h 1.686537 z"
       id="path865" />
    <path
       inkscape:connector-curvature="0"
       id="path827"
       style="font-style:normal;font-variant:normal;font-weight:normal;font-stretch:normal;font-size:40px;line-height:1.25;font-family:'Fax Sans';-inkscape-font-specification:'Fax Sans';letter-spacing:0px;word-spacing:0px;fill:#ffffff;fill-opacity:1;stroke:none;stroke-width:0.44395772"
       d="m 14.380097,285.32938 v 1.59872 h 1.952864 v 3.39289 c 0,2.89542 1.45575,3.71249 3.284355,3.71249 0.213032,0 0.62134,-0.0528 0.798881,-0.10654 l -0.159687,-1.54547 c -0.142081,0.0354 -0.337324,0.0702 -0.514849,0.0702 -0.852155,0 -1.722056,-0.28422 -1.722056,-2.13157 v -3.39287 h 2.396691 v -1.59878 h -2.396691 v -2.48677 h -1.686564 v 2.48679 z" />
    <path
       inkscape:connector-curvature="0"
       id="path831"
       style="font-style:normal;font-variant:normal;font-weight:normal;font-stretch:normal;font-size:40px;line-height:1.25;font-family:'Fax Sans';-inkscape-font-specification:'Fax Sans';letter-spacing:0px;word-spacing:0px;fill:#ffffff;fill-opacity:1;stroke:none;stroke-width:0.44395772"
       d="m 27.202633,289.59273 c 0,2.45135 1.935092,4.44075 4.3673,4.44075 2.449944,0 4.385035,-1.9894 4.385035,-4.44075 0,-2.4336 -1.935091,-4.44094 -4.385035,-4.44094 -2.432208,0 -4.3673,1.98959 -4.3673,4.44094 z m 1.686566,0 c 0,-1.54556 1.15395,-2.8422 2.680734,-2.8422 1.509016,0 2.698485,1.26123 2.698485,2.8422 0,1.5454 -1.171709,2.84197 -2.698485,2.84197 -1.562288,0 -2.680734,-1.33219 -2.680734,-2.84197 z" />
    <path
       inkscape:connector-curvature="0"
       id="path835"
       style="font-style:normal;font-variant:normal;font-weight:normal;font-stretch:normal;font-size:40px;line-height:1.25;font-family:'Fax Sans';-inkscape-font-specification:'Fax Sans';letter-spacing:0px;word-spacing:0px;fill:#ffffff;fill-opacity:1;stroke:none;stroke-width:0.44395772"
       d="m 50.528964,291.6888 c -0.426082,-0.42628 -0.692373,-1.08366 -0.763388,-1.74095 h 6.906012 c 0.01783,-0.12432 0.0355,-0.23081 0.0355,-0.35512 0,-2.36264 -1.828572,-4.44094 -4.278516,-4.44094 -2.432188,0 -4.367297,1.98959 -4.367297,4.44094 0,2.45135 1.935109,4.44075 4.367297,4.44075 1.722054,0 3.000295,-0.67501 3.674915,-1.61639 l -1.118457,-1.04802 c -0.426072,0.51495 -1.171709,1.15452 -2.556462,1.15452 -0.745632,0 -1.43801,-0.30189 -1.899595,-0.83479 z m 1.899596,-4.93827 c 1.100707,0 1.935091,0.76387 2.343426,1.68755 h -4.811117 c 0.443824,-0.9947 1.331499,-1.68755 2.467691,-1.68755 z" />
    <path
       inkscape:connector-curvature="0"
       id="path837"
       d="m 57.712664,285.32968 3.000193,4.04973 -3.301846,4.47647 h 0.01164 l -2.319712,3.14413 h 2.042313 l 2.307577,-3.14413 2.307558,-3.14414 2.343986,3.14414 h 2.041457 l -3.301878,-4.47647 2.946454,-4.04973 h -1.987695 l -2.042312,2.73573 -2.041441,-2.73573 z"
       style="font-style:normal;font-variant:normal;font-weight:normal;font-stretch:normal;font-size:40px;line-height:1.25;font-family:'Fax Sans';-inkscape-font-specification:'Fax Sans';letter-spacing:0px;word-spacing:0px;fill:#ffffff;fill-opacity:1;stroke:none;stroke-width:0.44395772" />
    <path
       d="m 37.27758,289.59273 c 0,2.45135 1.93509,4.44075 4.367299,4.44075 2.449946,0 4.385033,-1.9894 4.385033,-4.44075 0,-2.4336 -1.935087,-4.44094 -4.385033,-4.44094 -2.432209,0 -4.367299,1.98959 -4.367299,4.44094 z m 1.686564,0 c 0,-1.54556 1.153943,-2.8422 2.680735,-2.8422 1.509015,0 2.698486,1.26123 2.698486,2.8422 0,1.5454 -1.171708,2.84197 -2.698486,2.84197 -1.562286,0 -2.680735,-1.33219 -2.680735,-2.84197 z"
       style="font-style:normal;font-variant:normal;font-weight:normal;font-stretch:normal;font-size:40px;line-height:1.25;font-family:'Fax Sans';-inkscape-font-specification:'Fax Sans';letter-spacing:0px;word-spacing:0px;fill:#ffffff;fill-opacity:1;stroke:none;stroke-width:0.44395772"
       id="path881"
       inkscape:connector-curvature="0" />
    <path
       id="path883"
       d="m 46.029018,281.12501 h -1.686554 v 8.52645 h 1.686554 z"
       style="font-style:normal;font-variant:normal;font-weight:normal;font-stretch:normal;font-size:40px;line-height:1.25;font-family:'Fax Sans';-inkscape-font-specification:'Fax Sans';letter-spacing:0px;word-spacing:0px;fill:#ffffff;fill-opacity:1;stroke:none;stroke-width:0.44395772"
       inkscape:connector-curvature="0" />
  </g>
</svg>
