<?xml version="1.0" encoding="UTF-8" standalone="no"?>
<!-- Created with Inkscape (http://www.inkscape.org/) -->

<svg
   xmlns:dc="http://purl.org/dc/elements/1.1/"
   xmlns:cc="http://creativecommons.org/ns#"
   xmlns:rdf="http://www.w3.org/1999/02/22-rdf-syntax-ns#"
   xmlns:svg="http://www.w3.org/2000/svg"
   xmlns="http://www.w3.org/2000/svg"
   xmlns:sodipodi="http://sodipodi.sourceforge.net/DTD/sodipodi-0.dtd"
   xmlns:inkscape="http://www.inkscape.org/namespaces/inkscape"
   width="43"
   height="53"
   viewBox="0 0 11.377083 14.022917"
   version="1.1"
   id="svg1521"
   inkscape:version="0.92.3 (2405546, 2018-03-11)"
   sodipodi:docname="rocket-white.svg">
  <defs
     id="defs1515" />
  <sodipodi:namedview
     id="base"
     pagecolor="#ffffff"
     bordercolor="#666666"
     borderopacity="1.0"
     inkscape:pageopacity="0.0"
     inkscape:pageshadow="2"
     inkscape:zoom="11.313709"
     inkscape:cx="87.86654"
     inkscape:cy="11.436883"
     inkscape:document-units="px"
     inkscape:current-layer="layer1"
     showgrid="false"
     inkscape:snap-page="true"
     inkscape:snap-bbox="true"
     inkscape:bbox-paths="true"
     inkscape:bbox-nodes="true"
     inkscape:snap-smooth-nodes="true"
     inkscape:snap-midpoints="true"
     inkscape:snap-center="true"
     inkscape:snap-object-midpoints="true"
     inkscape:snap-text-baseline="true"
     inkscape:snap-intersection-paths="true"
     inkscape:object-paths="true"
     inkscape:snap-bbox-midpoints="true"
     inkscape:snap-bbox-edge-midpoints="true"
     units="px"
     inkscape:window-width="2498"
     inkscape:window-height="1417"
     inkscape:window-x="1974"
     inkscape:window-y="-8"
     inkscape:window-maximized="1" />
  <metadata
     id="metadata1518">
    <rdf:RDF>
      <cc:Work
         rdf:about="">
        <dc:format>image/svg+xml</dc:format>
        <dc:type
           rdf:resource="http://purl.org/dc/dcmitype/StillImage" />
        <dc:title></dc:title>
      </cc:Work>
    </rdf:RDF>
  </metadata>
  <g
     inkscape:label="Layer 1"
     inkscape:groupmode="layer"
     id="layer1"
     transform="translate(0,-282.97707)">
    <path
       style="fill:#ffffff;stroke-width:0.03695403"
       d="m 2.1831197,296.35227 c -0.3885874,-1.01364 -0.3372613,-2.22424 0.1288306,-3.03847 l 0.1540226,-0.26907 0.589532,0.34329 0.5895318,0.34329 -0.095926,0.16912 c -0.055793,0.0984 -0.1209831,0.29789 -0.1558645,0.47705 -0.061033,0.31352 -0.059485,0.769 0.00267,0.78183 0.060091,0.0125 0.4845549,-0.24104 0.6470423,-0.38635 0.086208,-0.0771 0.2202788,-0.23332 0.2979479,-0.34718 l 0.141207,-0.20704 0.5852501,0.3408 0.5852493,0.3408 -0.1540226,0.26907 c -0.1814797,0.31703 -0.5388668,0.703 -0.877249,0.94742 -0.4967212,0.3588 -1.2406666,0.64964 -1.8241644,0.71314 -0.3738238,0.0406 -0.4329692,-0.005 -0.6140751,-0.47771 z m -1.70115642,-4.83833 c 0.39628099,-1.16945 0.51207183,-1.47399 0.65138442,-1.71316 0.4350827,-0.74701 1.1343051,-1.17274 2.0288355,-1.23531 l 0.2894107,-0.0203 0.219486,-0.6245 c 0.513206,-1.46021 1.005691,-2.45346 1.4518368,-2.92808 0.2460515,-0.26174 0.7649017,-0.63658 1.1720723,-0.84674 0.7443582,-0.3842 2.6417374,-0.98581 3.5789041,-1.13478 0.4982059,-0.0792 0.5198339,-0.0633 0.7218339,0.52947 0.510248,1.49752 0.829362,3.22171 0.77544,4.18978 -0.03582,0.64307 -0.144458,0.99274 -0.504025,1.62229 -0.313596,0.54911 -0.751184,1.14589 -1.4173269,1.93305 l -0.4264789,0.50396 0.1273149,0.26292 c 0.3936393,0.81282 0.3776086,1.63695 -0.046483,2.38963 -0.1355897,0.24048 -0.3416602,0.49711 -1.1453157,1.42555 l -0.9800561,1.13223 -0.08464,-0.0488 c -0.057423,-0.0332 -0.2866435,-0.46225 -0.7137478,-1.33647 l -0.629123,-1.28765 -1.2712044,-0.74023 -1.2712035,-0.74023 -1.4202217,0.0943 c -0.96431443,0.0641 -1.4472563,0.0785 -1.50443375,0.0447 L 0,292.93615 0.48195322,291.51388 Z M 2.3882,291.42104 c 0.091779,-0.005 0.1703252,-0.0286 0.1746345,-0.0518 0.00426,-0.0231 0.094895,-0.32401 0.2012839,-0.66862 0.1063945,-0.34462 0.1820337,-0.63323 0.1680836,-0.64136 -0.051727,-0.0301 -0.3871647,0.17869 -0.5187072,0.32289 -0.1178519,0.1292 -0.154416,0.20303 -0.2738071,0.55289 -0.075787,0.22208 -0.1424066,0.42729 -0.1480516,0.45602 -0.01083,0.0551 -0.021278,0.0543 0.3965579,0.0299 z m 5.2074438,2.74658 c 0.3217793,-0.37304 0.3339056,-0.39271 0.3915727,-0.63571 0.041094,-0.17317 0.030847,-0.58397 -0.01426,-0.57179 -0.048668,0.0131 -0.9528046,1.04365 -0.9426441,1.07441 0.045834,0.1386 0.2330691,0.46805 0.2606515,0.45855 0.01873,-0.006 0.1558086,-0.15288 0.3046809,-0.32546 z m -1.5574253,-1.1747 c 0.2940674,-0.28347 1.7522707,-1.89985 2.2747663,-2.52151 1.0162766,-1.20916 1.4540479,-1.83421 1.5256248,-2.17829 0.090312,-0.43412 0.094327,-1.0843 0.011059,-1.79078 -0.060793,-0.51577 -0.3773743,-1.80532 -0.4541837,-1.85005 -0.073645,-0.0428 -1.2800627,0.30196 -1.769588,0.50583 -0.5125877,0.21346 -1.0291746,0.49268 -1.3606639,0.73543 -0.2567885,0.18805 -0.2644169,0.19739 -0.4979399,0.60998 -0.25626,0.45268 -0.4912519,1.02386 -0.8748645,2.12606 -0.3197601,0.91877 -0.7991833,2.43871 -0.9620926,3.05019 l -0.037062,0.13911 1.0482213,0.61039 c 0.9708518,0.56533 1.0519119,0.60674 1.0967562,0.56358 z m 0.328658,-3.90512 c -0.2416542,-0.27335 -0.3474049,-0.56584 -0.3330738,-0.92118 0.00799,-0.1981 0.026555,-0.24828 0.2111384,-0.57074 0.1848172,-0.32287 0.2182888,-0.36367 0.3853856,-0.47038 0.2537422,-0.16198 0.4548936,-0.22339 0.7165554,-0.21871 0.2141872,0.004 0.2406469,0.0138 0.622033,0.23596 0.3813862,0.22208 0.4030559,0.24049 0.5136188,0.42534 0.1348514,0.22621 0.1827015,0.43261 0.1704801,0.73525 -0.00805,0.19931 -0.026381,0.24894 -0.2111974,0.5718 -0.1845835,0.32245 -0.2184398,0.36374 -0.3844979,0.46979 -0.2388469,0.15247 -0.5062307,0.2192 -0.7807354,0.19487 -0.2669456,-0.0237 -0.7379506,-0.2577 -0.9097566,-0.45191 z"
       id="path852-4"
       inkscape:connector-curvature="0" />
  </g>
</svg>
