<?xml version="1.0" encoding="UTF-8" standalone="no"?>
<!-- Created with Inkscape (http://www.inkscape.org/) -->

<svg
   xmlns:dc="http://purl.org/dc/elements/1.1/"
   xmlns:cc="http://creativecommons.org/ns#"
   xmlns:rdf="http://www.w3.org/1999/02/22-rdf-syntax-ns#"
   xmlns:svg="http://www.w3.org/2000/svg"
   xmlns="http://www.w3.org/2000/svg"
   xmlns:sodipodi="http://sodipodi.sourceforge.net/DTD/sodipodi-0.dtd"
   xmlns:inkscape="http://www.inkscape.org/namespaces/inkscape"
   width="250"
   height="38"
   viewBox="0 0 66.145832 10.054167"
   version="1.1"
   id="svg1521"
   inkscape:version="0.92.3 (2405546, 2018-03-11)"
   sodipodi:docname="turbodeck-white.svg">
  <defs
     id="defs1515" />
  <sodipodi:namedview
     id="base"
     pagecolor="#ffffff"
     bordercolor="#666666"
     borderopacity="1.0"
     inkscape:pageopacity="0.0"
     inkscape:pageshadow="2"
     inkscape:zoom="2.8284271"
     inkscape:cx="213.30128"
     inkscape:cy="12.535689"
     inkscape:document-units="px"
     inkscape:current-layer="layer1"
     showgrid="false"
     inkscape:snap-page="true"
     inkscape:snap-bbox="true"
     inkscape:bbox-paths="true"
     inkscape:bbox-nodes="true"
     inkscape:snap-smooth-nodes="true"
     inkscape:snap-midpoints="true"
     inkscape:snap-center="true"
     inkscape:snap-object-midpoints="true"
     inkscape:snap-text-baseline="true"
     inkscape:snap-intersection-paths="true"
     inkscape:object-paths="true"
     inkscape:snap-bbox-midpoints="true"
     inkscape:snap-bbox-edge-midpoints="true"
     units="px"
     inkscape:window-width="2498"
     inkscape:window-height="1417"
     inkscape:window-x="1974"
     inkscape:window-y="-8"
     inkscape:window-maximized="1" />
  <metadata
     id="metadata1518">
    <rdf:RDF>
      <cc:Work
         rdf:about="">
        <dc:format>image/svg+xml</dc:format>
        <dc:type
           rdf:resource="http://purl.org/dc/dcmitype/StillImage" />
        <dc:title></dc:title>
      </cc:Work>
    </rdf:RDF>
  </metadata>
  <g
     inkscape:label="Layer 1"
     inkscape:groupmode="layer"
     id="layer1"
     transform="translate(0,-286.94582)">
    <path
       inkscape:connector-curvature="0"
       id="path840"
       style="font-style:normal;font-variant:normal;font-weight:normal;font-stretch:normal;font-size:medium;line-height:1.25;font-family:'Fax Sans';-inkscape-font-specification:'Fax Sans';letter-spacing:0px;word-spacing:0px;fill:#ffffff;fill-opacity:1;stroke:none;stroke-width:0.34680814"
       d="M 7.4174578,290.25132 H 6.090061 v 3.03002 c 0,2.25872 1.5090355,3.58092 3.39533,3.58092 0.796435,0 1.536985,-0.24791 2.123832,-0.70241 v 0.56468 h 1.327397 v -6.47321 h -1.327397 v 3.14019 c 0,1.41862 -1.019992,2.2312 -2.123832,2.2312 -1.4252003,0 -2.0679332,-1.212 -2.0679332,-2.34137 z" />
    <path
       inkscape:connector-curvature="0"
       id="path842"
       style="font-style:normal;font-variant:normal;font-weight:normal;font-stretch:normal;font-size:medium;line-height:1.25;font-family:'Fax Sans';-inkscape-font-specification:'Fax Sans';letter-spacing:0px;word-spacing:0px;fill:#ffffff;fill-opacity:1;stroke:none;stroke-width:0.34680814"
       d="m 18.397916,290.11359 c -0.824386,0 -1.564921,0.26168 -2.026016,0.78505 v -0.64732 h -1.327396 v 6.61094 H 16.3719 v -3.04378 c 0,-1.79049 1.047942,-2.46534 2.026016,-2.46534 z" />
    <path
       inkscape:connector-curvature="0"
       id="path846"
       style="font-style:normal;font-variant:normal;font-weight:normal;font-stretch:normal;font-size:medium;line-height:1.25;font-family:'Fax Sans';-inkscape-font-specification:'Fax Sans';letter-spacing:0px;word-spacing:0px;fill:#ffffff;fill-opacity:1;stroke:none;stroke-width:0.34680814"
       d="m 27.666734,293.55679 c 0,1.90065 1.523018,3.44321 3.437248,3.44321 1.928212,0 3.451229,-1.54256 3.451229,-3.44321 0,-1.88687 -1.523017,-3.4432 -3.451229,-3.4432 -1.91423,0 -3.437248,1.54255 -3.437248,3.4432 z m 1.327396,0 c 0,-1.19824 0.908222,-2.20365 2.109852,-2.20365 1.187676,0 2.123833,0.97787 2.123833,2.20365 0,1.19823 -0.92219,2.20366 -2.123833,2.20366 -1.22958,0 -2.109852,-1.03296 -2.109852,-2.20366 z" />
    <path
       inkscape:connector-curvature="0"
       id="path850"
       style="font-style:normal;font-variant:normal;font-weight:normal;font-stretch:normal;font-size:medium;line-height:1.25;font-family:'Fax Sans';-inkscape-font-specification:'Fax Sans';letter-spacing:0px;word-spacing:0px;fill:#ffffff;fill-opacity:1;stroke:none;stroke-width:0.34680814"
       d="m 46.025585,295.18198 c -0.335343,-0.33054 -0.544931,-0.84014 -0.600816,-1.34974 h 5.435314 c 0.014,-0.0964 0.02799,-0.17904 0.02799,-0.27545 0,-1.83178 -1.439168,-3.4432 -3.36738,-3.4432 -1.914244,0 -3.437248,1.54255 -3.437248,3.4432 0,1.90065 1.523004,3.44321 3.437248,3.44321 1.355333,0 2.361356,-0.52337 2.892318,-1.25333 l -0.880271,-0.81259 c -0.335341,0.39941 -0.922188,0.89523 -2.012047,0.89523 -0.586848,0 -1.131777,-0.23414 -1.495067,-0.64733 z m 1.495067,-3.82884 c 0.866289,0 1.523004,0.59223 1.844376,1.30842 h -3.78657 c 0.349323,-0.77128 1.047941,-1.30842 1.942194,-1.30842 z" />
    <path
       inkscape:connector-curvature="0"
       id="path852"
       style="font-style:normal;font-variant:normal;font-weight:normal;font-stretch:normal;font-size:medium;line-height:1.25;font-family:'Fax Sans';-inkscape-font-specification:'Fax Sans';letter-spacing:0px;word-spacing:0px;fill:#ffffff;fill-opacity:1;stroke:none;stroke-width:0.34680814"
       d="m 55.49067,295.76045 c -1.201631,0 -2.165737,-1.03296 -2.165737,-2.20366 0,-1.19824 0.908207,-2.20365 2.109852,-2.20365 0.754517,0 1.453148,0.34431 1.942179,1.03297 l 0.922189,-0.82638 c -0.684651,-0.89523 -1.676707,-1.44614 -2.864368,-1.44614 -1.914245,0 -3.437249,1.54255 -3.437249,3.4432 0,1.90065 1.467118,3.44321 3.493134,3.44321 1.383282,0 2.305471,-0.68864 2.906299,-1.55634 l -1.020005,-0.71617 c -0.405195,0.66109 -1.131777,1.03296 -1.886294,1.03296 z" />
    <path
       inkscape:connector-curvature="0"
       id="path854"
       style="font-style:normal;font-variant:normal;font-weight:normal;font-stretch:normal;font-size:medium;line-height:1.25;font-family:'Fax Sans';-inkscape-font-specification:'Fax Sans';letter-spacing:0px;word-spacing:0px;fill:#ffffff;fill-opacity:1;stroke:none;stroke-width:0.34680814"
       d="m 59.718465,296.86226 h 1.327383 v -3.05756 l 3.353413,3.05756 h 1.746572 l -3.702721,-3.51207 3.423279,-3.09887 h -1.746572 l -3.073971,2.67192 v -5.70194 h -1.327383 z" />
    <path
       inkscape:connector-curvature="0"
       id="path857"
       style="font-style:normal;font-variant:normal;font-weight:normal;font-stretch:normal;font-size:40px;line-height:1.25;font-family:'Fax Sans';-inkscape-font-specification:'Fax Sans';letter-spacing:0px;word-spacing:0px;fill:#ffffff;fill-opacity:1;stroke:none;stroke-width:0.34680814"
       d="m 35.596169,293.55679 c 0,1.90065 1.523002,3.44321 3.437247,3.44321 1.928212,0 3.451216,-1.54256 3.451216,-3.44321 0,-1.88687 -1.523004,-3.4432 -3.451216,-3.4432 -1.914245,0 -3.437247,1.54255 -3.437247,3.4432 z m 1.327383,0 c 0,-1.19824 0.908221,-2.20365 2.109864,-2.20365 1.187662,0 2.123818,0.97787 2.123818,2.20365 0,1.19823 -0.922188,2.20366 -2.123818,2.20366 -1.229593,0 -2.109864,-1.03296 -2.109864,-2.20366 z" />
    <path
       inkscape:connector-curvature="0"
       style="font-style:normal;font-variant:normal;font-weight:normal;font-stretch:normal;font-size:40px;line-height:1.25;font-family:'Fax Sans';-inkscape-font-specification:'Fax Sans';letter-spacing:0px;word-spacing:0px;fill:#ffffff;fill-opacity:1;stroke:none;stroke-width:0.34680814"
       d="m 42.483919,286.99144 h -1.327383 v 6.61096 h 1.327383 z"
       id="path859" />
    <path
       d="m 26.640141,293.51117 c 0,1.90065 -1.523004,3.44321 -3.437247,3.44321 -1.928212,0 -3.451216,-1.54256 -3.451216,-3.44321 0,-1.88687 1.523004,-3.44319 3.451216,-3.44319 1.914243,0 3.437247,1.54255 3.437247,3.44319 z m -1.327383,0 c 0,-1.19824 -0.908221,-2.20365 -2.109864,-2.20365 -1.187662,0 -2.123819,0.97788 -2.123819,2.20365 0,1.19825 0.922188,2.20367 2.123819,2.20367 1.22958,0 2.109864,-1.03297 2.109864,-2.20367 z"
       style="font-style:normal;font-variant:normal;font-weight:normal;font-stretch:normal;font-size:40px;line-height:1.25;font-family:'Fax Sans';-inkscape-font-specification:'Fax Sans';letter-spacing:0px;word-spacing:0px;fill:#ffffff;fill-opacity:1;stroke:none;stroke-width:0.34680814"
       id="path870"
       inkscape:connector-curvature="0" />
    <path
       id="path872"
       d="m 19.752378,286.94583 h 1.327396 v 6.61096 h -1.327396 z"
       style="font-style:normal;font-variant:normal;font-weight:normal;font-stretch:normal;font-size:40px;line-height:1.25;font-family:'Fax Sans';-inkscape-font-specification:'Fax Sans';letter-spacing:0px;word-spacing:0px;fill:#ffffff;fill-opacity:1;stroke:none;stroke-width:0.34680814"
       inkscape:connector-curvature="0" />
    <path
       d="m 0,290.25132 v 1.23954 h 1.5369719 v 2.63062 c 0,2.24496 1.145758,2.87852 2.5849264,2.87852 0.1676705,0 0.4890437,-0.0414 0.6287648,-0.0826 l -0.1258185,-1.19824 c -0.111825,0.0276 -0.265474,0.055 -0.4052084,0.055 -0.6706825,0 -1.355333,-0.22037 -1.355333,-1.65274 v -2.63062 h 1.8862943 v -1.23954 H 2.8643027 v -1.9282 H 1.5369058 v 1.9282 z"
       style="font-style:normal;font-variant:normal;font-weight:normal;font-stretch:normal;font-size:medium;line-height:1.25;font-family:'Fax Sans';-inkscape-font-specification:'Fax Sans';letter-spacing:0px;word-spacing:0px;fill:#ffffff;fill-opacity:1;stroke:none;stroke-width:0.34680814"
       id="path876"
       inkscape:connector-curvature="0"
       mask="none"
       clip-path="none" />
  </g>
</svg>
