<?xml version="1.0" encoding="UTF-8" standalone="no"?>
<!-- Created with Inkscape (http://www.inkscape.org/) -->

<svg
   xmlns:dc="http://purl.org/dc/elements/1.1/"
   xmlns:cc="http://creativecommons.org/ns#"
   xmlns:rdf="http://www.w3.org/1999/02/22-rdf-syntax-ns#"
   xmlns:svg="http://www.w3.org/2000/svg"
   xmlns="http://www.w3.org/2000/svg"
   xmlns:sodipodi="http://sodipodi.sourceforge.net/DTD/sodipodi-0.dtd"
   xmlns:inkscape="http://www.inkscape.org/namespaces/inkscape"
   width="165"
   height="53"
   viewBox="0 0 43.656249 14.022917"
   version="1.1"
   id="svg1521"
   inkscape:version="0.92.3 (2405546, 2018-03-11)"
   sodipodi:docname="turbodeck-rocket.svg">
  <defs
     id="defs1515" />
  <sodipodi:namedview
     id="base"
     pagecolor="#ffffff"
     bordercolor="#666666"
     borderopacity="1.0"
     inkscape:pageopacity="0.0"
     inkscape:pageshadow="2"
     inkscape:zoom="5.6568544"
     inkscape:cx="104.55229"
     inkscape:cy="-6.0057987"
     inkscape:document-units="px"
     inkscape:current-layer="layer1"
     showgrid="false"
     inkscape:snap-page="true"
     inkscape:snap-bbox="true"
     inkscape:bbox-paths="true"
     inkscape:bbox-nodes="true"
     inkscape:snap-smooth-nodes="true"
     inkscape:snap-midpoints="true"
     inkscape:snap-center="true"
     inkscape:snap-object-midpoints="true"
     inkscape:snap-text-baseline="true"
     inkscape:snap-intersection-paths="true"
     inkscape:object-paths="true"
     inkscape:snap-bbox-midpoints="true"
     inkscape:snap-bbox-edge-midpoints="true"
     units="px"
     inkscape:window-width="2498"
     inkscape:window-height="1417"
     inkscape:window-x="1974"
     inkscape:window-y="-8"
     inkscape:window-maximized="1" />
  <metadata
     id="metadata1518">
    <rdf:RDF>
      <cc:Work
         rdf:about="">
        <dc:format>image/svg+xml</dc:format>
        <dc:type
           rdf:resource="http://purl.org/dc/dcmitype/StillImage" />
        <dc:title></dc:title>
      </cc:Work>
    </rdf:RDF>
  </metadata>
  <g
     inkscape:label="Layer 1"
     inkscape:groupmode="layer"
     id="layer1"
     transform="translate(0,-282.97707)">
    <g
       id="g874"
       transform="translate(0.19372702,-1.9837011)">
      <path
         d="m 23.621717,295.18198 c -0.335343,-0.33054 -0.544931,-0.84014 -0.600816,-1.34974 h 5.435314 c 0.014,-0.0964 0.02799,-0.17904 0.02799,-0.27545 0,-1.83178 -1.439168,-3.4432 -3.36738,-3.4432 -1.914244,0 -3.437248,1.54255 -3.437248,3.4432 0,1.90065 1.523004,3.44321 3.437248,3.44321 1.355333,0 2.361356,-0.52337 2.892318,-1.25333 l -0.880271,-0.81259 c -0.335341,0.39941 -0.922188,0.89523 -2.012047,0.89523 -0.586848,0 -1.131777,-0.23414 -1.495067,-0.64733 z m 1.495067,-3.82884 c 0.866289,0 1.523004,0.59223 1.844376,1.30842 h -3.78657 c 0.349323,-0.77128 1.047941,-1.30842 1.942194,-1.30842 z"
         style="font-style:normal;font-variant:normal;font-weight:normal;font-stretch:normal;font-size:medium;line-height:1.25;font-family:'Fax Sans';-inkscape-font-specification:'Fax Sans';letter-spacing:0px;word-spacing:0px;fill:#000000;fill-opacity:1;stroke:none;stroke-width:0.34680814"
         id="path850"
         inkscape:connector-curvature="0" />
      <path
         d="m 33.086802,295.76045 c -1.201631,0 -2.165737,-1.03296 -2.165737,-2.20366 0,-1.19824 0.908207,-2.20365 2.109852,-2.20365 0.754517,0 1.453148,0.34431 1.942179,1.03297 l 0.922189,-0.82638 c -0.684651,-0.89523 -1.676707,-1.44614 -2.864368,-1.44614 -1.914245,0 -3.437249,1.54255 -3.437249,3.4432 0,1.90065 1.467118,3.44321 3.493134,3.44321 1.383282,0 2.305471,-0.68864 2.906299,-1.55634 l -1.020005,-0.71617 c -0.405195,0.66109 -1.131777,1.03296 -1.886294,1.03296 z"
         style="font-style:normal;font-variant:normal;font-weight:normal;font-stretch:normal;font-size:medium;line-height:1.25;font-family:'Fax Sans';-inkscape-font-specification:'Fax Sans';letter-spacing:0px;word-spacing:0px;fill:#000000;fill-opacity:1;stroke:none;stroke-width:0.34680814"
         id="path852"
         inkscape:connector-curvature="0" />
      <path
         d="m 37.314597,296.86226 h 1.327383 v -3.05756 l 3.353413,3.05756 h 1.746572 l -3.702721,-3.51207 3.423279,-3.09887 h -1.746572 l -3.073971,2.67192 v -5.70194 h -1.327383 z"
         style="font-style:normal;font-variant:normal;font-weight:normal;font-stretch:normal;font-size:medium;line-height:1.25;font-family:'Fax Sans';-inkscape-font-specification:'Fax Sans';letter-spacing:0px;word-spacing:0px;fill:#000000;fill-opacity:1;stroke:none;stroke-width:0.34680814"
         id="path854"
         inkscape:connector-curvature="0" />
      <path
         d="m 13.192301,293.55679 c 0,1.90065 1.523002,3.44321 3.437247,3.44321 1.928212,0 3.451216,-1.54256 3.451216,-3.44321 0,-1.88687 -1.523004,-3.4432 -3.451216,-3.4432 -1.914245,0 -3.437247,1.54255 -3.437247,3.4432 z m 1.327383,0 c 0,-1.19824 0.908221,-2.20365 2.109864,-2.20365 1.187662,0 2.123818,0.97787 2.123818,2.20365 0,1.19823 -0.922188,2.20366 -2.123818,2.20366 -1.229593,0 -2.109864,-1.03296 -2.109864,-2.20366 z"
         style="font-style:normal;font-variant:normal;font-weight:normal;font-stretch:normal;font-size:40px;line-height:1.25;font-family:'Fax Sans';-inkscape-font-specification:'Fax Sans';letter-spacing:0px;word-spacing:0px;fill:#000000;fill-opacity:1;stroke:none;stroke-width:0.34680814"
         id="path857"
         inkscape:connector-curvature="0" />
      <path
         id="path859"
         d="m 20.080051,286.99144 h -1.327383 v 6.61096 h 1.327383 z"
         style="font-style:normal;font-variant:normal;font-weight:normal;font-stretch:normal;font-size:40px;line-height:1.25;font-family:'Fax Sans';-inkscape-font-specification:'Fax Sans';letter-spacing:0px;word-spacing:0px;fill:#000000;fill-opacity:1;stroke:none;stroke-width:0.34680814"
         inkscape:connector-curvature="0" />
    </g>
    <path
       style="fill:#000000;stroke-width:0.03711237"
       d="m 2.2018688,296.35227 c -0.3919247,-1.01364 -0.3401578,-2.22424 0.129937,-3.03847 l 0.1553454,-0.26907 0.594595,0.34329 0.5945949,0.34329 -0.09675,0.16912 c -0.056272,0.0984 -0.1220221,0.29789 -0.1572031,0.47705 -0.061557,0.31352 -0.059996,0.769 0.00269,0.78183 0.060607,0.0125 0.4887164,-0.24104 0.6525993,-0.38635 0.086948,-0.0771 0.2221706,-0.23332 0.3005067,-0.34718 l 0.1424197,-0.20704 0.5902764,0.3408 0.5902755,0.3408 -0.1553454,0.26907 c -0.1830382,0.31703 -0.5434947,0.703 -0.884783,0.94742 -0.5009871,0.3588 -1.2513217,0.64964 -1.8398307,0.71314 -0.3770343,0.0406 -0.4366876,-0.005 -0.6193489,-0.47771 z m -1.71576632,-4.83833 c 0.39968434,-1.16945 0.51646962,-1.47399 0.65697862,-1.71316 0.4388193,-0.74701 1.1440468,-1.17274 2.0462596,-1.23531 l 0.2918962,-0.0203 0.221371,-0.6245 c 0.5176135,-1.46021 1.0143281,-2.45346 1.4643055,-2.92808 0.2481647,-0.26174 0.7714708,-0.63658 1.1821383,-0.84674 0.7507509,-0.3842 2.6644252,-0.98581 3.6096405,-1.13478 0.5024848,-0.0792 0.5242988,-0.0633 0.7280328,0.52947 0.514631,1.49752 0.836485,3.22171 0.7821,4.18978 -0.03613,0.64307 -0.145699,0.99274 -0.508354,1.62229 -0.316289,0.54911 -0.757635,1.14589 -1.4294989,1.93305 l -0.4301416,0.50396 0.1284084,0.26292 c 0.3970199,0.81282 0.3808515,1.63695 -0.046882,2.38963 -0.1367542,0.24048 -0.3445945,0.49711 -1.155152,1.42555 l -0.988473,1.13223 -0.085367,-0.0488 c -0.057916,-0.0332 -0.2891053,-0.46225 -0.7198776,-1.33647 l -0.6345261,-1.28765 -1.2821217,-0.74023 -1.2821209,-0.74023 -1.4324189,0.0943 c -0.97259615,0.0641 -1.45968563,0.0785 -1.51735413,0.0447 L 0,292.93615 0.48609234,291.51388 Z m 1.92260792,-0.0929 c 0.092567,-0.005 0.171788,-0.0286 0.1761343,-0.0518 0.0043,-0.0231 0.09571,-0.32401 0.2030125,-0.66862 0.1073083,-0.34462 0.1835971,-0.63323 0.1695272,-0.64136 -0.052171,-0.0301 -0.3904898,0.17869 -0.523162,0.32289 -0.118864,0.1292 -0.1557421,0.20303 -0.2761586,0.55289 -0.076438,0.22208 -0.1436296,0.42729 -0.1493231,0.45602 -0.010923,0.0551 -0.021461,0.0543 0.3999636,0.0299 z m 5.2521664,2.74658 c 0.3245428,-0.37304 0.3367733,-0.39271 0.3949356,-0.63571 0.041447,-0.17317 0.031112,-0.58397 -0.014382,-0.57179 -0.049086,0.0131 -0.9609875,1.04365 -0.9507398,1.07441 0.046228,0.1386 0.2350708,0.46805 0.2628901,0.45855 0.018891,-0.006 0.1571467,-0.15288 0.3072975,-0.32546 z m -1.5708008,-1.1747 c 0.2965929,-0.28347 1.7673196,-1.89985 2.2943025,-2.52151 1.0250046,-1.20916 1.4665356,-1.83421 1.5387272,-2.17829 0.091088,-0.43412 0.095137,-1.0843 0.011154,-1.79078 -0.061315,-0.51577 -0.3806153,-1.80532 -0.4580844,-1.85005 -0.074277,-0.0428 -1.2910561,0.30196 -1.7847856,0.50583 -0.5169899,0.21346 -1.0380133,0.49268 -1.3723495,0.73543 -0.2589939,0.18805 -0.2666878,0.19739 -0.5022163,0.60998 -0.2584609,0.45268 -0.4954709,1.02386 -0.8823781,2.12606 -0.3225062,0.91877 -0.8060468,2.43871 -0.9703552,3.05019 l -0.03738,0.13911 1.0572236,0.61039 c 0.9791897,0.56533 1.060946,0.60674 1.1061754,0.56358 z m 0.3314806,-3.90512 c -0.2437296,-0.27335 -0.3503885,-0.56584 -0.3359343,-0.92118 0.00806,-0.1981 0.026783,-0.24828 0.2129517,-0.57074 0.1864044,-0.32287 0.2201635,-0.36367 0.3886954,-0.47038 0.2559214,-0.16198 0.4588003,-0.22339 0.7227093,-0.21871 0.2160267,0.004 0.2427136,0.0138 0.6273752,0.23596 0.3846616,0.22208 0.4065174,0.24049 0.5180298,0.42534 0.1360096,0.22621 0.1842706,0.43261 0.1719442,0.73525 -0.00812,0.19931 -0.026607,0.24894 -0.2130112,0.5718 -0.1861687,0.32245 -0.2203158,0.36374 -0.3878,0.46979 -0.2408982,0.15247 -0.5105783,0.2192 -0.7874405,0.19487 -0.2692382,-0.0237 -0.7442883,-0.2577 -0.9175698,-0.45191 z"
       id="path852-4"
       inkscape:connector-curvature="0" />
  </g>
</svg>
