<svg xmlns="http://www.w3.org/2000/svg" viewBox="0 0 50 50">
  <path d="M24.962891 1.0546875 A 1.0001 1.0001 0 0 0 24.384766 1.2636719L1.3847656 19.210938 A 1.0005659 1.0005659 0 0 0 2.6152344 20.789062L4 19.708984L4 46 A 1.0001 1.0001 0 0 0 5 47L18.832031 47 A 1.0001 1.0001 0 0 0 19.158203 47L30.832031 47 A 1.0001 1.0001 0 0 0 31.158203 47L45 47 A 1.0001 1.0001 0 0 0 46 46L46 19.708984L47.384766 20.789062 A 1.0005657 1.0005657 0 1 0 48.615234 19.210938L41 13.269531L41 6L35 6L35 8.5859375L25.615234 1.2636719 A 1.0001 1.0001 0 0 0 24.962891 1.0546875 z M 25 3.3222656L44 18.148438L44 45L32 45L32 26L18 26L18 45L6 45L6 18.148438L25 3.3222656 z M 37 8L39 8L39 11.708984L37 10.146484L37 8 z M 20 28L30 28L30 45L20 45L20 28 z" fill="#FFFFFF" />
</svg>