<svg xmlns="http://www.w3.org/2000/svg" viewBox="0 0 50 50">
  <path d="M4 5C2.898438 5 2 5.898438 2 7L2 36C2 37.101563 2.898438 38 4 38L19 38L19 41L16 41C14.347656 41 13 42.347656 13 44L13 46L37 46L37 44C37 42.347656 35.652344 41 34 41L31 41L31 38L46 38C47.101563 38 48 37.101563 48 36L48 7C48 5.898438 47.101563 5 46 5 Z M 4 7L46 7L46 36L4 36L4 32L46 32L46 30L4 30 Z M 41 33L41 35L43 35L43 33 Z M 21 38L29 38L29 41L21 41 Z M 16 43L34 43C34.550781 43 35 43.449219 35 44L15 44C15 43.449219 15.449219 43 16 43Z" fill="#FFFFFF" />
</svg>