<svg xmlns="http://www.w3.org/2000/svg" viewBox="0 0 50 50">
  <path d="M6 4C4.9069372 4 4 4.9069372 4 6L4 14C4 15.093063 4.9069372 16 6 16L14 16C15.093063 16 16 15.093063 16 14L16 6C16 4.9069372 15.093063 4 14 4L6 4 z M 21 4C19.906937 4 19 4.9069372 19 6L19 14C19 15.093063 19.906937 16 21 16L29 16C30.093063 16 31 15.093063 31 14L31 6C31 4.9069372 30.093063 4 29 4L21 4 z M 36 4C34.906937 4 34 4.9069372 34 6L34 14C34 15.093063 34.906937 16 36 16L44 16C45.093063 16 46 15.093063 46 14L46 6C46 4.9069372 45.093063 4 44 4L36 4 z M 6 6L14 6L14 14L6 14L6 6 z M 21 6L29 6L29 14L21 14L21 6 z M 36 6L44 6L44 14L36 14L36 6 z M 6 19C4.9069372 19 4 19.906937 4 21L4 29C4 30.093063 4.9069372 31 6 31L14 31C15.093063 31 16 30.093063 16 29L16 21C16 19.906937 15.093063 19 14 19L6 19 z M 21 19C19.906937 19 19 19.906937 19 21L19 29C19 30.093063 19.906937 31 21 31L29 31C30.093063 31 31 30.093063 31 29L31 21C31 19.906937 30.093063 19 29 19L21 19 z M 36 19C34.906937 19 34 19.906937 34 21L34 29C34 30.093063 34.906937 31 36 31L44 31C45.093063 31 46 30.093063 46 29L46 21C46 19.906937 45.093063 19 44 19L36 19 z M 6 21L14 21L14 29L6 29L6 21 z M 21 21L29 21L29 29L21 29L21 21 z M 36 21L44 21L44 29L36 29L36 21 z M 6 34C4.9069372 34 4 34.906937 4 36L4 44C4 45.093063 4.9069372 46 6 46L14 46C15.093063 46 16 45.093063 16 44L16 36C16 34.906937 15.093063 34 14 34L6 34 z M 21 34C19.906937 34 19 34.906937 19 36L19 44C19 45.093063 19.906937 46 21 46L29 46C30.093063 46 31 45.093063 31 44L31 36C31 34.906937 30.093063 34 29 34L21 34 z M 36 34C34.906937 34 34 34.906937 34 36L34 44C34 45.093063 34.906937 46 36 46L44 46C45.093063 46 46 45.093063 46 44L46 36C46 34.906937 45.093063 34 44 34L36 34 z M 6 36L14 36L14 44L6 44L6 36 z M 21 36L29 36L29 44L21 44L21 36 z M 36 36L44 36L44 44L36 44L36 36 z" fill="#FFFFFF" />
</svg>