<svg xmlns="http://www.w3.org/2000/svg" viewBox="0 0 50 50">
  <path d="M0 5L0 45L50 45L50 5 Z M 2 7L48 7L48 33L37.320313 33L30.320313 28L24.414063 28L20.328125 23.914063L15.460938 24.890625L11.15625 18.429688L2 27.585938 Z M 37.5 13C35.027344 13 33 15.027344 33 17.5C33 19.972656 35.027344 22 37.5 22C39.972656 22 42 19.972656 42 17.5C42 15.027344 39.972656 13 37.5 13 Z M 37.5 15C38.890625 15 40 16.109375 40 17.5C40 18.890625 38.890625 20 37.5 20C36.109375 20 35 18.890625 35 17.5C35 16.109375 36.109375 15 37.5 15 Z M 10.84375 21.570313L14.539063 27.109375L19.671875 26.085938L23.585938 30L29.679688 30L36.679688 35L48 35L48 43L2 43L2 30.414063Z" fill="#FFFFFF" />
</svg>