<svg xmlns="http://www.w3.org/2000/svg" viewBox="0 0 50 50">
  <path d="M11 4C7.144531 4 4 7.144531 4 11L4 39C4 42.855469 7.144531 46 11 46L39 46C42.855469 46 46 42.855469 46 39L46 11C46 7.144531 42.855469 4 39 4 Z M 11 6L39 6C41.773438 6 44 8.226563 44 11L44 39C44 41.773438 41.773438 44 39 44L11 44C8.226563 44 6 41.773438 6 39L6 11C6 8.226563 8.226563 6 11 6 Z M 21 12C20.449219 12 20 12.449219 20 13L20 16L17 16C16.449219 16 16 16.449219 16 17L16 20L12 20C11.449219 20 11 20.449219 11 21L11 37C11 37.550781 11.449219 38 12 38L16.832031 38C16.941406 38.019531 17.050781 38.019531 17.15625 38L20.832031 38C20.941406 38.019531 21.050781 38.019531 21.15625 38L24.832031 38C24.941406 38.019531 25.050781 38.019531 25.15625 38L28.832031 38C28.941406 38.019531 29.050781 38.019531 29.15625 38L32.832031 38C32.941406 38.019531 33.050781 38.019531 33.15625 38L38 38C38.550781 38 39 37.550781 39 37L39 21C39 20.449219 38.550781 20 38 20L34 20L34 17C34 16.449219 33.550781 16 33 16L30 16L30 13C30 12.449219 29.550781 12 29 12 Z M 22 14L28 14L28 17C28 17.550781 28.449219 18 29 18L32 18L32 21C32 21.550781 32.449219 22 33 22L37 22L37 36L34 36L34 30C34.003906 29.730469 33.898438 29.46875 33.707031 29.277344C33.515625 29.085938 33.253906 28.980469 32.984375 28.984375C32.433594 28.996094 31.992188 29.449219 32 30L32 36L30 36L30 30C30.003906 29.730469 29.898438 29.46875 29.707031 29.277344C29.515625 29.085938 29.253906 28.980469 28.984375 28.984375C28.433594 28.996094 27.992188 29.449219 28 30L28 36L26 36L26 30C26.003906 29.730469 25.898438 29.46875 25.707031 29.277344C25.515625 29.085938 25.253906 28.980469 24.984375 28.984375C24.433594 28.996094 23.992188 29.449219 24 30L24 36L22 36L22 30C22.003906 29.730469 21.898438 29.46875 21.707031 29.277344C21.515625 29.085938 21.253906 28.980469 20.984375 28.984375C20.433594 28.996094 19.992188 29.449219 20 30L20 36L18 36L18 30C18.003906 29.730469 17.898438 29.46875 17.707031 29.277344C17.515625 29.085938 17.253906 28.980469 16.984375 28.984375C16.433594 28.996094 15.992188 29.449219 16 30L16 36L13 36L13 22L17 22C17.550781 22 18 21.550781 18 21L18 18L21 18C21.550781 18 22 17.550781 22 17Z" fill="#FFFFFF" />
</svg>