<?xml version="1.0" encoding="UTF-8" standalone="no"?>
<svg
   xmlns:dc="http://purl.org/dc/elements/1.1/"
   xmlns:cc="http://creativecommons.org/ns#"
   xmlns:rdf="http://www.w3.org/1999/02/22-rdf-syntax-ns#"
   xmlns:svg="http://www.w3.org/2000/svg"
   xmlns="http://www.w3.org/2000/svg"
   xmlns:sodipodi="http://sodipodi.sourceforge.net/DTD/sodipodi-0.dtd"
   xmlns:inkscape="http://www.inkscape.org/namespaces/inkscape"
   viewBox="0 0 24 24"
   version="1.1"
   id="svg16"
   sodipodi:docname="wifi-outline.svg"
   inkscape:version="0.92.3 (2405546, 2018-03-11)">
  <metadata
     id="metadata22">
    <rdf:RDF>
      <cc:Work
         rdf:about="">
        <dc:format>image/svg+xml</dc:format>
        <dc:type
           rdf:resource="http://purl.org/dc/dcmitype/StillImage" />
      </cc:Work>
    </rdf:RDF>
  </metadata>
  <defs
     id="defs20" />
  <sodipodi:namedview
     pagecolor="#ffffff"
     bordercolor="#666666"
     borderopacity="1"
     objecttolerance="10"
     gridtolerance="10"
     guidetolerance="10"
     inkscape:pageopacity="0"
     inkscape:pageshadow="2"
     inkscape:window-width="640"
     inkscape:window-height="480"
     id="namedview18"
     showgrid="false"
     inkscape:zoom="9.8333333"
     inkscape:cx="12"
     inkscape:cy="12"
     inkscape:window-x="0"
     inkscape:window-y="0"
     inkscape:window-maximized="0"
     inkscape:current-layer="svg16" />
  <g
     data-name="Layer 2"
     id="g14"
     style="fill:#ffffff">
    <g
       data-name="wifi"
       id="g12"
       style="fill:#ffffff">
      <rect
         width="24"
         height="24"
         opacity="0"
         id="rect2"
         style="fill:#ffffff" />
      <circle
         cx="12"
         cy="19"
         r="1"
         id="circle4"
         style="fill:#ffffff" />
      <path
         d="M12 14a5 5 0 0 0-3.47 1.4 1 1 0 1 0 1.39 1.44 3.08 3.08 0 0 1 4.16 0 1 1 0 1 0 1.39-1.44A5 5 0 0 0 12 14z"
         id="path6"
         style="fill:#ffffff" />
      <path
         d="M12 9a9 9 0 0 0-6.47 2.75A1 1 0 0 0 7 13.14a7 7 0 0 1 10.08 0 1 1 0 0 0 .71.3 1 1 0 0 0 .72-1.69A9 9 0 0 0 12 9z"
         id="path8"
         style="fill:#ffffff" />
      <path
         d="M21.72 7.93a14 14 0 0 0-19.44 0 1 1 0 0 0 1.38 1.44 12 12 0 0 1 16.68 0 1 1 0 0 0 .69.28 1 1 0 0 0 .72-.31 1 1 0 0 0-.03-1.41z"
         id="path10"
         style="fill:#ffffff" />
    </g>
  </g>
</svg>
