<?xml version="1.0" encoding="UTF-8" standalone="no"?>
<svg
   xmlns:dc="http://purl.org/dc/elements/1.1/"
   xmlns:cc="http://creativecommons.org/ns#"
   xmlns:rdf="http://www.w3.org/1999/02/22-rdf-syntax-ns#"
   xmlns:svg="http://www.w3.org/2000/svg"
   xmlns="http://www.w3.org/2000/svg"
   xmlns:xlink="http://www.w3.org/1999/xlink"
   xmlns:sodipodi="http://sodipodi.sourceforge.net/DTD/sodipodi-0.dtd"
   xmlns:inkscape="http://www.inkscape.org/namespaces/inkscape"
   id="Iterm"
   width="64"
   height="64"
   enable-background="new 0 0 1024 1024"
   image-rendering="optimizeSpeed"
   version="1.1"
   viewBox="0 0 64 64"
   sodipodi:docname="deck.svg"
   inkscape:version="0.92.3 (2405546, 2018-03-11)">
  <metadata
     id="metadata47">
    <rdf:RDF>
      <cc:Work
         rdf:about="">
        <dc:format>image/svg+xml</dc:format>
        <dc:type
           rdf:resource="http://purl.org/dc/dcmitype/StillImage" />
        <dc:title></dc:title>
      </cc:Work>
    </rdf:RDF>
  </metadata>
  <sodipodi:namedview
     pagecolor="#ffffff"
     bordercolor="#666666"
     borderopacity="1"
     objecttolerance="10"
     gridtolerance="10"
     guidetolerance="10"
     inkscape:pageopacity="0"
     inkscape:pageshadow="2"
     inkscape:window-width="1920"
     inkscape:window-height="1057"
     id="namedview45"
     showgrid="false"
     inkscape:zoom="14.75"
     inkscape:cx="7.603656"
     inkscape:cy="28.972991"
     inkscape:window-x="-8"
     inkscape:window-y="-8"
     inkscape:window-maximized="1"
     inkscape:current-layer="Iterm" />
  <defs
     id="defs25">
    <linearGradient
       id="a"
       x1="367.9"
       x2="367.9"
       y1="339.9"
       y2="519.9"
       gradientTransform="matrix(.06383 0 0 .06383 .87885 .92153)"
       gradientUnits="userSpaceOnUse">
      <stop
         stop-color="#fff"
         offset="0"
         id="stop2" />
      <stop
         stop-color="#d7d7d7"
         offset="1"
         id="stop4" />
    </linearGradient>
    <linearGradient
       id="c"
       x1="676.12"
       x2="676.12"
       y1="297.12"
       y2="697.12"
       gradientTransform="matrix(0.06383,0,0,0.06383,-6.1899399,-46.787891)"
       gradientUnits="userSpaceOnUse">
      <stop
         stop-color="#fff"
         offset="0"
         id="stop7" />
      <stop
         stop-color="#d7d7d7"
         offset="1"
         id="stop9" />
    </linearGradient>
    <filter
       id="e"
       x="-.042651"
       y="-.031144"
       width="1.0853"
       height="1.0623"
       color-interpolation-filters="sRGB">
      <feGaussianBlur
         stdDeviation="4.9310891"
         id="feGaussianBlur12" />
    </filter>
    <linearGradient
       id="b"
       x1="-506.45"
       x2="-506.45"
       y1="-19.101"
       y2="1013.6"
       gradientTransform="matrix(0.058824,0,0,0.058824,61.791001,3.1236009)"
       gradientUnits="userSpaceOnUse">
      <stop
         stop-color="#333"
         offset="0"
         id="stop15" />
      <stop
         stop-color="#333"
         offset=".50769"
         id="stop17" />
      <stop
         stop-color="#4a4a4a"
         offset="1"
         id="stop19" />
    </linearGradient>
    <filter
       id="d"
       x="-.036"
       y="-.036"
       width="1.072"
       height="1.072"
       color-interpolation-filters="sRGB">
      <feGaussianBlur
         stdDeviation="0.90000006"
         id="feGaussianBlur22" />
    </filter>
    <linearGradient
       inkscape:collect="always"
       xlink:href="#c"
       id="linearGradient881"
       x1="60.098858"
       y1="21.288137"
       x2="20.714701"
       y2="21.288137"
       gradientUnits="userSpaceOnUse" />
    <linearGradient
       inkscape:collect="always"
       xlink:href="#c"
       id="linearGradient883"
       gradientUnits="userSpaceOnUse"
       x1="60.098858"
       y1="21.288137"
       x2="20.714701"
       y2="21.288137" />
    <linearGradient
       inkscape:collect="always"
       xlink:href="#c"
       id="linearGradient885"
       gradientUnits="userSpaceOnUse"
       x1="60.098858"
       y1="21.288137"
       x2="20.714701"
       y2="21.288137" />
    <linearGradient
       inkscape:collect="always"
       xlink:href="#c"
       id="linearGradient887"
       gradientUnits="userSpaceOnUse"
       x1="60.098858"
       y1="21.288137"
       x2="20.714701"
       y2="21.288137" />
    <linearGradient
       inkscape:collect="always"
       xlink:href="#c"
       id="linearGradient889"
       gradientUnits="userSpaceOnUse"
       x1="60.098858"
       y1="21.288137"
       x2="20.714701"
       y2="21.288137" />
    <linearGradient
       inkscape:collect="always"
       xlink:href="#c"
       id="linearGradient891"
       gradientUnits="userSpaceOnUse"
       x1="60.098858"
       y1="21.288137"
       x2="20.714701"
       y2="21.288137" />
    <filter
       inkscape:collect="always"
       style="color-interpolation-filters:sRGB"
       id="filter1013"
       x="-0.026286797"
       width="1.0525736"
       y="-0.080236604"
       height="1.1604732">
      <feGaussianBlur
         inkscape:collect="always"
         stdDeviation="0.46862058"
         id="feGaussianBlur1015" />
    </filter>
  </defs>
  <mask
     id="mask30">
    <g
       id="g">
      <path
         d="m969.75 392.05c-1.1-4.35-2.35-9-3.65-13.6-1-3.4-2-6.85-3.15-10.5-1.6-5.15-3.4-10.5-5.3-15.85-6.45-18.25-14.15-36.05-23.15-53.65-3.8-7.4-7.95-14.95-12.3-22.4-20.3-34.5-45.8-67.2-76.35-97.75-72.6-72.6-157.15-116.65-253.65-132.05-16.25-2.6-32.8-4.4-50.05-5.35-9.7-0.55-19.85-0.85-30.1-0.85-9.35 0-18.6 0.25-27.9 0.75-118.35 6.1-220.3 51.95-305.85 137.5q-138.25 138.25-138.25 333.75c0 130.35 46.1 241.65 138.25 333.8 56.7 56.65 120.55 95.9 191.1 117.55 36.75 11.25 74.8 17.85 114.75 19.95h0.4c8.5 0.45 16.6 0.7 24.5 0.7h3c10.3 0 20.5-0.3 30.1-0.8 2.5-0.15 4.75-0.3 6.95-0.45 20.2-1.45 39.9-4.05 58.7-7.7 7.95-1.55 15.8-3.3 23.4-5.15 80.8-20.3 152.15-61.6 214.65-124.1 48.6-48.6 84.4-102.5 107.35-161.8 18.45-47.65 28.65-98.8 30.55-153.5 0.2-6.05 0.3-12.25 0.3-18.5v-3c-0.2-40.65-4.95-79.5-14.3-117z"
         fill="#fff"
         id="path27" />
    </g>
  </mask>
  <circle
     cx="32"
     cy="32"
     r="30"
     fill-rule="evenodd"
     filter="url(#d)"
     opacity=".25"
     style="paint-order:fill markers stroke"
     id="circle32" />
  <circle
     cx="32"
     cy="32"
     r="30"
     style="fill:url(#b);fill-rule:evenodd;paint-order:fill markers stroke"
     id="circle34" />
  <g
     style="fill:#000000;fill-opacity:1;filter:url(#filter1013);opacity:0.646"
     transform="translate(-8.9491521,8.1355934)"
     id="g903">
    <path
       inkscape:connector-curvature="0"
       id="path893"
       style="font-style:normal;font-variant:normal;font-weight:normal;font-stretch:normal;font-size:medium;line-height:1.25;font-family:'Fax Sans';-inkscape-font-specification:'Fax Sans';letter-spacing:0px;word-spacing:0px;fill:#000000;fill-opacity:1;stroke:none;stroke-width:0.48571077"
       d="m 34.163063,28.326819 c -0.469654,-0.462927 -0.763185,-1.17663 -0.841453,-1.890334 h 7.612251 c 0.01961,-0.13501 0.0392,-0.250749 0.0392,-0.385772 0,-2.56544 -2.01558,-4.822261 -4.716074,-4.822261 -2.680932,0 -4.813925,2.160367 -4.813925,4.822261 0,2.661893 2.132993,4.822275 4.813925,4.822275 1.898167,0 3.30712,-0.732989 4.050741,-1.755311 l -1.232835,-1.138046 c -0.46965,0.55938 -1.29154,1.253785 -2.817906,1.253785 -0.821891,0 -1.585073,-0.327917 -2.093867,-0.906597 z m 2.093867,-5.362356 c 1.213253,0 2.132994,0.829428 2.583081,1.832464 h -5.303157 c 0.489233,-1.080191 1.46766,-1.832464 2.720076,-1.832464 z" />
    <path
       inkscape:connector-curvature="0"
       id="path895"
       style="font-style:normal;font-variant:normal;font-weight:normal;font-stretch:normal;font-size:medium;line-height:1.25;font-family:'Fax Sans';-inkscape-font-specification:'Fax Sans';letter-spacing:0px;word-spacing:0px;fill:#000000;fill-opacity:1;stroke:none;stroke-width:0.48571077"
       d="m 47.419078,29.136976 c -1.682905,0 -3.033152,-1.446678 -3.033152,-3.086263 0,-1.678156 1.27196,-3.08625 2.954885,-3.08625 1.056713,0 2.035158,0.482212 2.720055,1.446692 l 1.291541,-1.157359 c -0.958865,-1.253786 -2.348257,-2.025344 -4.011596,-2.025344 -2.680934,0 -4.813927,2.160367 -4.813927,4.822261 0,2.661893 2.054724,4.822275 4.892194,4.822275 1.937311,0 3.228852,-0.964453 4.070322,-2.179681 l -1.428534,-1.003009 c -0.567483,0.925868 -1.585074,1.446678 -2.641788,1.446678 z" />
    <path
       inkscape:connector-curvature="0"
       id="path897"
       style="font-style:normal;font-variant:normal;font-weight:normal;font-stretch:normal;font-size:medium;line-height:1.25;font-family:'Fax Sans';-inkscape-font-specification:'Fax Sans';letter-spacing:0px;word-spacing:0px;fill:#000000;fill-opacity:1;stroke:none;stroke-width:0.48571077"
       d="m 53.340178,30.68008 h 1.859023 v -4.282165 l 4.696514,4.282165 h 2.446105 l -5.185726,-4.918715 4.794362,-4.34002 h -2.446105 l -4.30515,3.74207 v -7.985666 h -1.859023 z" />
    <path
       inkscape:connector-curvature="0"
       id="path899"
       style="font-style:normal;font-variant:normal;font-weight:normal;font-stretch:normal;font-size:40px;line-height:1.25;font-family:'Fax Sans';-inkscape-font-specification:'Fax Sans';letter-spacing:0px;word-spacing:0px;fill:#000000;fill-opacity:1;stroke:none;stroke-width:0.48571077"
       d="m 19.556486,26.050713 c 0,2.661893 2.13299,4.822275 4.813924,4.822275 2.700494,0 4.833487,-2.160382 4.833487,-4.822275 0,-2.642594 -2.132993,-4.822261 -4.833487,-4.822261 -2.680934,0 -4.813924,2.160367 -4.813924,4.822261 z m 1.859023,0 c 0,-1.678156 1.271979,-3.08625 2.954901,-3.08625 1.663341,0 2.974443,1.369524 2.974443,3.08625 0,1.678141 -1.29154,3.086263 -2.974443,3.086263 -1.722067,0 -2.954901,-1.446678 -2.954901,-3.086263 z" />
    <path
       inkscape:connector-curvature="0"
       style="font-style:normal;font-variant:normal;font-weight:normal;font-stretch:normal;font-size:40px;line-height:1.25;font-family:'Fax Sans';-inkscape-font-specification:'Fax Sans';letter-spacing:0px;word-spacing:0px;fill:#000000;fill-opacity:1;stroke:none;stroke-width:0.48571077"
       d="m 29.202899,16.855827 h -1.859023 v 9.258763 h 1.859023 z"
       id="path901" />
  </g>
  <g
     id="g873"
     transform="translate(-8.9491521,8.1355934)"
     style="fill:url(#linearGradient881);fill-opacity:1">
    <path
       d="m 34.163063,28.326819 c -0.469654,-0.462927 -0.763185,-1.17663 -0.841453,-1.890334 h 7.612251 c 0.01961,-0.13501 0.0392,-0.250749 0.0392,-0.385772 0,-2.56544 -2.01558,-4.822261 -4.716074,-4.822261 -2.680932,0 -4.813925,2.160367 -4.813925,4.822261 0,2.661893 2.132993,4.822275 4.813925,4.822275 1.898167,0 3.30712,-0.732989 4.050741,-1.755311 l -1.232835,-1.138046 c -0.46965,0.55938 -1.29154,1.253785 -2.817906,1.253785 -0.821891,0 -1.585073,-0.327917 -2.093867,-0.906597 z m 2.093867,-5.362356 c 1.213253,0 2.132994,0.829428 2.583081,1.832464 h -5.303157 c 0.489233,-1.080191 1.46766,-1.832464 2.720076,-1.832464 z"
       style="font-style:normal;font-variant:normal;font-weight:normal;font-stretch:normal;font-size:medium;line-height:1.25;font-family:'Fax Sans';-inkscape-font-specification:'Fax Sans';letter-spacing:0px;word-spacing:0px;fill:url(#linearGradient883);fill-opacity:1;stroke:none;stroke-width:0.48571077"
       id="path850"
       inkscape:connector-curvature="0" />
    <path
       d="m 47.419078,29.136976 c -1.682905,0 -3.033152,-1.446678 -3.033152,-3.086263 0,-1.678156 1.27196,-3.08625 2.954885,-3.08625 1.056713,0 2.035158,0.482212 2.720055,1.446692 l 1.291541,-1.157359 c -0.958865,-1.253786 -2.348257,-2.025344 -4.011596,-2.025344 -2.680934,0 -4.813927,2.160367 -4.813927,4.822261 0,2.661893 2.054724,4.822275 4.892194,4.822275 1.937311,0 3.228852,-0.964453 4.070322,-2.179681 l -1.428534,-1.003009 c -0.567483,0.925868 -1.585074,1.446678 -2.641788,1.446678 z"
       style="font-style:normal;font-variant:normal;font-weight:normal;font-stretch:normal;font-size:medium;line-height:1.25;font-family:'Fax Sans';-inkscape-font-specification:'Fax Sans';letter-spacing:0px;word-spacing:0px;fill:url(#linearGradient885);fill-opacity:1;stroke:none;stroke-width:0.48571077"
       id="path852"
       inkscape:connector-curvature="0" />
    <path
       d="m 53.340178,30.68008 h 1.859023 v -4.282165 l 4.696514,4.282165 h 2.446105 l -5.185726,-4.918715 4.794362,-4.34002 h -2.446105 l -4.30515,3.74207 v -7.985666 h -1.859023 z"
       style="font-style:normal;font-variant:normal;font-weight:normal;font-stretch:normal;font-size:medium;line-height:1.25;font-family:'Fax Sans';-inkscape-font-specification:'Fax Sans';letter-spacing:0px;word-spacing:0px;fill:url(#linearGradient887);fill-opacity:1;stroke:none;stroke-width:0.48571077"
       id="path854"
       inkscape:connector-curvature="0" />
    <path
       d="m 19.556486,26.050713 c 0,2.661893 2.13299,4.822275 4.813924,4.822275 2.700494,0 4.833487,-2.160382 4.833487,-4.822275 0,-2.642594 -2.132993,-4.822261 -4.833487,-4.822261 -2.680934,0 -4.813924,2.160367 -4.813924,4.822261 z m 1.859023,0 c 0,-1.678156 1.271979,-3.08625 2.954901,-3.08625 1.663341,0 2.974443,1.369524 2.974443,3.08625 0,1.678141 -1.29154,3.086263 -2.974443,3.086263 -1.722067,0 -2.954901,-1.446678 -2.954901,-3.086263 z"
       style="font-style:normal;font-variant:normal;font-weight:normal;font-stretch:normal;font-size:40px;line-height:1.25;font-family:'Fax Sans';-inkscape-font-specification:'Fax Sans';letter-spacing:0px;word-spacing:0px;fill:url(#linearGradient889);fill-opacity:1;stroke:none;stroke-width:0.48571077"
       id="path857"
       inkscape:connector-curvature="0" />
    <path
       id="path859"
       d="m 29.202899,16.855827 h -1.859023 v 9.258763 h 1.859023 z"
       style="font-style:normal;font-variant:normal;font-weight:normal;font-stretch:normal;font-size:40px;line-height:1.25;font-family:'Fax Sans';-inkscape-font-specification:'Fax Sans';letter-spacing:0px;word-spacing:0px;fill:url(#linearGradient891);fill-opacity:1;stroke:none;stroke-width:0.48571077"
       inkscape:connector-curvature="0" />
  </g>
</svg>
